<?xml version="1.0" encoding="utf-8"?>
<!-- Generator: Adobe Illustrator 19.0.0, SVG Export Plug-In . SVG Version: 6.00 Build 0)  -->
<svg version="1.1" id="Layer_1" xmlns:sketch="http://www.bohemiancoding.com/sketch/ns"
	 xmlns="http://www.w3.org/2000/svg" xmlns:xlink="http://www.w3.org/1999/xlink" x="0px" y="0px" viewBox="-177 303.2 255.7 187.8"
	 style="enable-background:new -177 303.2 255.7 187.8;" xml:space="preserve">
<style type="text/css">
	.st0{fill:#FF5A00;}
</style>
<title>Logo-white</title>
<desc>Created with Sketch.</desc>
<g id="Page-1_1_" sketch:type="MSPage">
	<g id="_x32_56_1_" transform="translate(-246.000000, 9.000000)" sketch:type="MSArtboardGroup">
		<g id="Logo-white_1_" transform="translate(346.000000, 91.000000)" sketch:type="MSLayerGroup">
			<g id="Group_1_" sketch:type="MSShapeGroup">
				<path id="Shape_7_" class="st0" d="M-104.4,339.8h-6.6c0,0-0.4,0-0.4,0.5v4.4c0,0,0,0.4,0.1,0.4h6.4c1.8,0,2.9-0.6,2.9-2.6v-0.2
					C-101.9,340.6-102.8,339.8-104.4,339.8L-104.4,339.8z"/>
				<path id="Shape_6_" class="st0" d="M-149,270.7c-0.3-1-0.8-1-1.2,0l-5,15.8c-0.3,1,0.2,1.9,1.3,1.9h8.6c1.1,0,1.6-0.8,1.3-1.9
					L-149,270.7L-149,270.7z"/>
				<path id="Shape_5_" class="st0" d="M-111.1,335h5.1c1.6,0,2.6-1.1,2.6-2.7v-0.1c0-1.5-0.8-2.3-2.4-2.3h-5.2c0,0-0.2-0.1-0.2,0.3
					v4.4C-111.3,335-111.1,335-111.1,335L-111.1,335z"/>
				<path id="Shape_4_" class="st0" d="M-27.1,247.9l-119-43.9c-2-0.7-4.1-0.7-6.1,0l-119,43.9c-3.5,1.2-5.8,4.6-5.8,8.2v82
					c0,3.7,2.3,7,5.8,8.2l119,43.9c2,0.7,4.1,0.7,6.1,0l119-43.9c3.5-1.2,5.8-4.6,5.8-8.2v-82C-21.3,252.4-23.6,249.1-27.1,247.9
					L-27.1,247.9z M-233.1,306.4V254c0-1.1,0.9-2,2-2h40.4c1.1,0,2,0.9,2,2v8.8c0,1.1-0.9,2-2,2h-26.2c-1.1,0-2,0.9-2,2v6.6
					c0,1.1,0.9,2,2,2h16.5c1.1,0,2,0.9,2,2v8.8c0,1.1-0.9,2-2,2h-16.5c-1.1,0-2,0.9-2,2v4c0,1.1,0.9,2,2,2h26.7c1.1,0,2,0.9,2,2v8.4
					c0,1.1-0.9,2-2,2h-40.9C-232.3,308.3-233.1,307.4-233.1,306.4L-233.1,306.4z M-192.4,345.1c4.5,0,4.4-1.3,6.7-2.6
					c0,0,0.7-0.2,1.3,0.5l1.4,1.9c0,0,0.4,0.4,0,0.8c-2.2,2.3-4.8,3.7-9,3.7c-6.7,0-11.7-5.2-11.7-11.7v-0.2
					c0-6.5,4.9-11.7,11.7-11.7c4.1,0,6.7,1.4,9,3.7c0.4,0.4,0,0.8,0,0.8l-1.4,1.9c-0.6,0.7-1.3,0.5-1.3,0.5
					c-2.3-1.2-2.2-2.6-6.7-2.6c-3,0-6.8,3-6.8,7.3v0.1C-199.2,342.2-195.4,345.1-192.4,345.1L-192.4,345.1z M-157.3,347.9
					c0,0.4-0.3,0.8-0.8,0.8h-12.5c-0.4,0-0.8-0.3-0.8-0.8v-21.2c0-0.5,0.4-0.8,0.8-0.8h2.8c0.5,0,0.8,0.3,0.8,0.8v16.8
					c0,0.4,0.3,0.8,0.8,0.8h8c0.4,0,0.8,0.4,0.8,0.8L-157.3,347.9L-157.3,347.9L-157.3,347.9z M-127.6,340.1c0,5-0.3,9.5-9.4,9.5
					s-9.4-4.5-9.4-9.5v-13.4c0-0.5,0.3-0.8,0.8-0.8h2.8c0.4,0,0.8,0.3,0.8,0.8v13.4c0,1.8,0.5,4.9,5,4.9s5-3.1,5-4.9v-13.4
					c0-0.5,0.3-0.8,0.8-0.8h2.8c0.4,0,0.8,0.3,0.8,0.8L-127.6,340.1L-127.6,340.1z M-123.3,308.3h-11.8c-1.1,0-2.2-0.8-2.6-1.9
					l-1.3-4.1c-0.3-1-1.5-1.9-2.6-1.9h-16.2c-1.1,0-2.2,0.8-2.6,1.9l-1.3,4.1c-0.3,1-1.5,1.9-2.6,1.9h-12c-1.1,0-1.6-0.8-1.2-1.8
					l19.4-52.7c0.3-1,1.6-1.8,2.6-1.8h11.3c1.1,0,2.2,0.8,2.6,1.8l19.5,52.7C-121.7,307.5-122.2,308.3-123.3,308.3L-123.3,308.3z
					 M-97.5,342.6c0,4.4-3.5,6.6-9,6.6h-8.5c0,0-0.9,0-0.9-1v-22c0-0.7,0.9-0.7,0.9-0.7h8.1c2.7,0,4.9,0.4,6.3,1.8
					c1.1,1.1,1.6,2.5,1.6,4.1v0.1c0,3.5-1.3,5-3,5.9C-99.9,337.7-97.5,339.4-97.5,342.6L-97.5,342.6L-97.5,342.6z M-65.2,265
					c0,1.1-0.9,2-2,2h-17.3c-1.1,0-2,0.9-2,2v37.4c0,1.1-0.9,2-2,2h-11.2c-1.1,0-2-0.9-2-2v-37.5c0-1.1-0.9-2-2-2h-16.4
					c-1.1,0-2-0.9-2-2v-11c0-1.1,0.9-2,2-2h53c1.1,0,2,0.9,2,2L-65.2,265L-65.2,265z"/>
			</g>
		</g>
	</g>
</g>
</svg>
